<?xml version="1.0" encoding="UTF-8"?>
<svg version="1.1" xmlns="http://www.w3.org/2000/svg" width="503" height="503">
<path d="M0 0 C1.36599335 -0.0146228 1.36599335 -0.0146228 2.75958252 -0.02954102 C23.25231521 -0.20365459 43.1116265 0.04689796 63.26171875 4.23828125 C64.17018555 4.42551758 65.07865234 4.61275391 66.01464844 4.80566406 C115.0161564 15.27885458 165.87465838 42.04599395 198.37890625 80.98828125 C199.85014451 82.7464415 201.36442822 84.46860399 202.89453125 86.17578125 C239.21028389 126.88427571 263.18405383 183.39733538 263.46484375 238.25 C263.47190338 239.1726918 263.47896301 240.09538361 263.48623657 241.04603577 C263.71491068 279.69866145 263.71491068 279.69866145 260.26171875 296.23828125 C259.95572754 297.72666504 259.95572754 297.72666504 259.64355469 299.24511719 C248.87012319 350.19545044 223.19228235 402.4003209 182.51171875 436.35546875 C180.7535585 437.82670701 179.03139601 439.34099072 177.32421875 440.87109375 C151.98331526 463.48048445 121.48761837 479.88588531 89.26171875 490.23828125 C88.53774902 490.47530762 87.8137793 490.71233398 87.06787109 490.95654297 C75.3531076 494.76010813 63.42668884 497.33626968 51.26171875 499.23828125 C49.55085083 499.50862183 49.55085083 499.50862183 47.80541992 499.78442383 C36.4318275 501.40283199 25.17473595 501.59648681 13.69921875 501.55078125 C12.72583557 501.5486261 11.75245239 501.54647095 10.74957275 501.54425049 C-3.60771377 501.4932367 -17.6255174 501.1014796 -31.73828125 498.23828125 C-32.75374023 498.03960449 -33.76919922 497.84092773 -34.81542969 497.63623047 C-77.40294422 489.11745134 -116.80134596 470.65755078 -149.73828125 442.23828125 C-150.87330078 441.26955078 -150.87330078 441.26955078 -152.03125 440.28125 C-165.18260892 428.76004278 -177.41922303 416.36551495 -187.73828125 402.23828125 C-188.59634277 401.08723108 -189.45441576 399.93618948 -190.3125 398.78515625 C-196.35041781 390.59428947 -201.71143968 382.08118397 -206.73828125 373.23828125 C-207.10808105 372.59584473 -207.47788086 371.9534082 -207.85888672 371.29150391 C-220.30551004 349.49236363 -228.26177355 325.52722352 -233.48828125 301.05078125 C-233.68711914 300.12595947 -233.88595703 299.2011377 -234.09082031 298.24829102 C-237.27960681 282.54912389 -238.11637712 267.0918381 -238.05078125 251.11328125 C-238.0486261 250.16607208 -238.04647095 249.21886292 -238.04425049 248.24295044 C-237.9924716 234.04640733 -237.55288255 220.19496102 -234.73828125 206.23828125 C-234.53960449 205.22137207 -234.34092773 204.20446289 -234.13623047 203.15673828 C-222.09686122 142.97792854 -188.58422356 86.77397906 -138.73828125 50.23828125 C-138.16899902 49.81353516 -137.5997168 49.38878906 -137.01318359 48.95117188 C-128.26877852 42.43292913 -119.20075787 36.65362936 -109.73828125 31.23828125 C-108.61550781 30.58214844 -107.49273437 29.92601563 -106.3359375 29.25 C-74.66942654 11.47543423 -36.3854747 0.32455433 0 0 Z M-141.1953125 77.86279297 C-142.64726319 79.15714268 -144.11418758 80.43463936 -145.58203125 81.7109375 C-149.9595233 85.55442826 -154.04678799 89.45947694 -157.7890625 93.92578125 C-159.27210343 95.68522059 -160.79852016 97.40820005 -162.34375 99.11328125 C-202.24722831 143.4691902 -221.38906717 204.10738349 -218.73828125 263.23828125 C-216.2145081 304.08999466 -203.51347148 344.13432481 -180.73828125 378.23828125 C-180.32223633 378.86379883 -179.90619141 379.48931641 -179.47753906 380.13378906 C-173.63430179 388.82218707 -167.08234162 396.81295547 -160.14599609 404.64697266 C-158.84139422 406.12172032 -157.54905735 407.60729333 -156.2578125 409.09375 C-151.71948036 414.25698157 -146.9947043 418.82288589 -141.73828125 423.23828125 C-140.68449252 424.16342564 -139.6325641 425.09069133 -138.58203125 426.01953125 C-126.55524498 436.59802143 -113.60472706 445.25621398 -99.73828125 453.23828125 C-98.86961426 453.74657471 -98.86961426 453.74657471 -97.98339844 454.26513672 C-48.85823236 482.81234752 13.89549259 489.6011198 68.57421875 475.80078125 C105.90414264 465.79699346 139.45269294 448.87517406 167.81640625 422.49609375 C169.92054266 420.55329688 172.06754821 418.70212053 174.26171875 416.86328125 C211.95670556 383.83238003 234.6699303 332.95858362 242.26171875 284.23828125 C242.43960938 283.10567871 242.43960938 283.10567871 242.62109375 281.95019531 C251.27041318 223.85045141 235.08264315 161.37837608 200.34375 114.203125 C195.41712787 107.72167742 190.06217079 101.64323438 184.51953125 95.68359375 C182.57673438 93.57945734 180.72555803 91.43245179 178.88671875 89.23828125 C145.98821272 51.69438432 94.84283272 28.61245786 46.26171875 21.23828125 C45.50036621 21.1211377 44.73901367 21.00399414 43.95458984 20.88330078 C-22.59013126 11.13692487 -91.36526476 33.35659718 -141.1953125 77.86279297 Z " fill="#7E6BFB" transform="translate(239.73828125,0.76171875)"/>
<path d="M0 0 C8.91 0 17.82 0 27 0 C28.65 3.3 30.3 6.6 32 10 C33.90162283 12.39997916 35.68943975 14.5261186 37.8125 16.6875 C38.34528564 17.24219971 38.87807129 17.79689941 39.42700195 18.3684082 C40.9376016 19.926593 42.46598996 21.46492096 44 23 C44.64710938 23.6703125 45.29421875 24.340625 45.9609375 25.03125 C50.90290977 29.77196548 56.81634962 32.91516592 62.71166992 36.30932617 C79.01933732 45.73627246 89.63106373 58.04375892 95.875 75.875 C99.8545592 91.04706944 98.23853193 106.30180129 90.81640625 120.16015625 C87.3968068 125.50649775 83.19654352 131.93448549 77 134 C77.02094727 133.23558594 77.04189453 132.47117188 77.06347656 131.68359375 C77.95186955 101.62234077 77.95186955 101.62234077 63.96875 75.73046875 C55.87670348 68.06354787 46.52154838 63.34459963 36.09375 59.7890625 C35.31225586 59.51811768 34.53076172 59.24717285 33.72558594 58.96801758 C31.8185907 58.30756739 29.90950657 57.65315383 28 57 C27.99853344 57.97422315 27.99706688 58.94844629 27.99555588 59.95219135 C27.95892472 83.68154306 27.89942766 107.41075401 27.81609726 131.1399889 C27.77632564 142.61538229 27.74392357 154.09070728 27.72900391 165.56616211 C27.71597771 175.57076392 27.68898819 185.57521513 27.64538693 195.57973212 C27.62279406 200.87471516 27.60708803 206.1695126 27.60811615 211.46454811 C27.60886404 216.4542507 27.59086143 221.44354333 27.55883217 226.4331398 C27.55035352 228.25875286 27.54856933 230.08441201 27.55419731 231.91003609 C27.5961995 247.63658506 24.9608257 259.13036845 14.07421875 271.12109375 C-0.23877144 284.94889783 -18.75674822 289.63639951 -38.12475586 289.40283203 C-53.48012199 288.92705088 -66.57585706 284.09054004 -77.8046875 273.3671875 C-84.92656497 265.68772531 -88.81719728 257.53608428 -89 247 C-88.24790275 235.86896075 -83.33197038 224.5614871 -75 217 C-59.13592879 204.01802703 -40.54882395 197.61736451 -20 199 C-13.07720724 200.05975158 -6.52979823 201.38808071 0 204 C0 136.68 0 69.36 0 0 Z " fill="#E86EBA" transform="translate(248,107)"/>
<path d="M0 0 C-1.32 0.33 -2.64 0.66 -4 1 C-3.67 1.99 -3.34 2.98 -3 4 C-4 5 -5 6 -6 7 C-6 7.78375 -6 8.5675 -6 9.375 C-6 12 -6 12 -7 15 C-7 15.99 -7 16.98 -7 18 C-4.69 18.33 -2.38 18.66 0 19 C0 19.33 0 19.66 0 20 C-0.62753174 20.09498779 -1.25506348 20.18997559 -1.90161133 20.2878418 C-50.0835493 27.68255584 -91.52435801 45.69940729 -128.52197266 77.72167969 C-129.86760772 78.8854962 -131.22052834 80.04087546 -132.57421875 81.1953125 C-136.71246166 84.77851095 -140.49423913 88.46060232 -144.015625 92.65234375 C-145.51294393 94.42377816 -147.05168541 96.16031759 -148.609375 97.87890625 C-188.50936639 142.23620613 -207.65075282 202.86984058 -205 262 C-202.47622685 302.85171341 -189.77519023 342.89604356 -167 377 C-166.58395508 377.62551758 -166.16791016 378.25103516 -165.73925781 378.89550781 C-159.8825917 387.60387336 -153.30650599 395.59923386 -146.36035156 403.45605469 C-145.142633 404.83811718 -143.94128178 406.23456069 -142.7421875 407.6328125 C-138.48514707 412.55762398 -133.97200693 416.81175771 -129 421 C-127.94501627 421.92656875 -126.89177126 422.85511925 -125.83984375 423.78515625 C-113.81378878 434.36157397 -100.86481724 443.0188702 -87 451 C-86.42088867 451.3388623 -85.84177734 451.67772461 -85.24511719 452.02685547 C-59.55058899 466.95824749 -29.43223664 475.61042657 0 479 C-0.99 479.33 -1.98 479.66 -3 480 C-2.79375 481.27875 -2.5875 482.5575 -2.375 483.875 C-2.0234375 486.0546875 -2.0234375 486.0546875 -2 488 C-2.66 488.66 -3.32 489.32 -4 490 C-3.34 490.33 -2.68 490.66 -2 491 C-2 492.32 -2 493.64 -2 495 C-2.66 495 -3.32 495 -4 495 C-4 495.66 -4 496.32 -4 497 C-2.68 497.66 -1.36 498.32 0 499 C-49.42641008 497.91910435 -100.1505238 472.79516208 -137 441 C-138.13501953 440.03126953 -138.13501953 440.03126953 -139.29296875 439.04296875 C-152.44432767 427.52176153 -164.68094178 415.1272337 -175 401 C-175.85806152 399.84894983 -176.71613451 398.69790823 -177.57421875 397.546875 C-183.61213656 389.35600822 -188.97315843 380.84290272 -194 372 C-194.3697998 371.35756348 -194.73959961 370.71512695 -195.12060547 370.05322266 C-207.56722879 348.25408238 -215.5234923 324.28894227 -220.75 299.8125 C-220.94883789 298.88767822 -221.14767578 297.96285645 -221.35253906 297.01000977 C-224.54132556 281.31084264 -225.37809587 265.85355685 -225.3125 249.875 C-225.31034485 248.92779083 -225.3081897 247.98058167 -225.30596924 247.00466919 C-225.25419035 232.80812608 -224.8146013 218.95667977 -222 205 C-221.80132324 203.98309082 -221.60264648 202.96618164 -221.39794922 201.91845703 C-209.35857997 141.73964729 -175.84594231 85.53569781 -126 49 C-125.43071777 48.57525391 -124.86143555 48.15050781 -124.27490234 47.71289062 C-115.53049727 41.19464788 -106.46247662 35.41534811 -97 30 C-95.87722656 29.34386719 -94.75445312 28.68773438 -93.59765625 28.01171875 C-66.81989195 12.98123012 -31.0751855 -0.62571358 0 0 Z " fill="#EA70BA" transform="translate(227,2)"/>
<path d="M0 0 C2.85597463 3.46046006 4.69928736 7.29425035 6.625 11.3125 C15.67657222 29.73996787 27.05840805 46.09426372 40.63964844 61.45605469 C41.857367 62.83811718 43.05871822 64.23456069 44.2578125 65.6328125 C48.51485293 70.55762398 53.02799307 74.81175771 58 79 C59.05498373 79.92656875 60.10822874 80.85511925 61.16015625 81.78515625 C73.18621122 92.36157397 86.13518276 101.0188702 100 109 C100.57911133 109.3388623 101.15822266 109.67772461 101.75488281 110.02685547 C127.44941101 124.95824749 157.56776336 133.61042657 187 137 C186.01 137.33 185.02 137.66 184 138 C184.20625 139.27875 184.4125 140.5575 184.625 141.875 C184.9765625 144.0546875 184.9765625 144.0546875 185 146 C184.34 146.66 183.68 147.32 183 148 C183.66 148.33 184.32 148.66 185 149 C185 150.32 185 151.64 185 153 C184.34 153 183.68 153 183 153 C183 153.66 183 154.32 183 155 C184.32 155.66 185.64 156.32 187 157 C137.57358992 155.91910435 86.8494762 130.79516208 50 99 C49.24332031 98.35417969 48.48664063 97.70835937 47.70703125 97.04296875 C34.55567233 85.52176153 22.31905822 73.1272337 12 59 C11.14193848 57.84894983 10.28386549 56.69790823 9.42578125 55.546875 C4.98188434 49.51744165 0.83978007 43.33111501 -3.0625 36.9375 C-3.44486816 36.31818604 -3.82723633 35.69887207 -4.22119141 35.06079102 C-6.19119331 31.7586194 -7.69390627 28.86791166 -8 25 C-6.6875 23.3125 -6.6875 23.3125 -5 22 C-4.34 21.34 -3.68 20.68 -3 20 C-2.7226499 16.81509993 -2.7226499 16.81509993 -5 14 C-4.484375 13.608125 -3.96875 13.21625 -3.4375 12.8125 C-1.69591506 11.047528 -1.69591506 11.047528 -2.25 8.4375 C-2.919513 6.02397485 -2.919513 6.02397485 -4 4 C-3.34 4 -2.68 4 -2 4 C-1.34 2.68 -0.68 1.36 0 0 Z " fill="#EA70BA" transform="translate(40,344)"/>
<path d="M0 0 C0.2475 0.5775 0.495 1.155 0.75 1.75 C1.89166999 4.12836049 1.89166999 4.12836049 4.125 5.75 C6.96039946 9.15247936 6.27706513 11.63622428 6 16 C6 16.99 6 17.98 6 19 C5 22 5 22 3 24 C3 24.99 3 25.98 3 27 C2.67 27.66 2.34 28.32 2 29 C2.21359617 31.25801661 2.57830606 33.47244354 2.94140625 35.7109375 C3.01084318 38.42360691 2.34695655 39.67556456 1 42 C0.45467603 43.21849901 -0.0662604 44.44820007 -0.5625 45.6875 C-0.81128906 46.28949219 -1.06007813 46.89148438 -1.31640625 47.51171875 C-1.93397464 49.75966768 -2.19789833 51.71643769 -2.41015625 54.02734375 C-2.8779859 58.69942804 -3.92702572 63.11413216 -5.06982422 67.66235352 C-17.19299463 116.03372994 -13.62506299 166.66444908 5.18359375 212.91015625 C6.17812796 215.45597349 6.36584415 217.29275328 6 220 C5.01 220.66 4.02 221.32 3 222 C3.350625 222.5775 3.70125 223.155 4.0625 223.75 C5 226 5 226 4.75 228.1875 C4 230 4 230 2 231 C2.66 231.99 3.32 232.98 4 234 C4 237.58912412 3.33563446 238.10857029 1 240.6875 C0.443125 241.31011719 -0.11375 241.93273437 -0.6875 242.57421875 C-1.120625 243.04472656 -1.55375 243.51523437 -2 244 C-23.70206357 217.57141338 -32.02243728 169.92660714 -32.203125 136.42578125 C-32.21018463 135.54761749 -32.21724426 134.66945374 -32.22451782 133.76467896 C-32.45223926 97.11851613 -32.45223926 97.11851613 -29 80 C-28.80132324 78.98309082 -28.60264648 77.96618164 -28.39794922 76.91845703 C-23.02669533 50.0702344 -14.04384641 23.62516219 0 0 Z " fill="#F96FB0" transform="translate(34,127)"/>
<path d="M0 0 C0.91349213 -0.00833359 1.82698425 -0.01666718 2.76815796 -0.0252533 C5.72711913 -0.04467875 8.68551652 -0.04470247 11.64453125 -0.0390625 C12.65401825 -0.03885101 13.66350525 -0.03863953 14.70358276 -0.03842163 C31.25665261 -0.00376394 47.20432075 0.95524136 63.45703125 4.3359375 C64.36549805 4.52317383 65.27396484 4.71041016 66.20996094 4.90332031 C88.71128984 9.71257444 109.9753014 17.94713071 130.45703125 28.3359375 C129.79703125 29.9859375 129.13703125 31.6359375 128.45703125 33.3359375 C127.79703125 33.3359375 127.13703125 33.3359375 126.45703125 33.3359375 C127.44703125 34.6559375 128.43703125 35.9759375 129.45703125 37.3359375 C128.46703125 37.6659375 127.47703125 37.9959375 126.45703125 38.3359375 C127.44703125 39.9859375 128.43703125 41.6359375 129.45703125 43.3359375 C128.13703125 44.3259375 126.81703125 45.3159375 125.45703125 46.3359375 C124.46703125 45.6759375 123.47703125 45.0159375 122.45703125 44.3359375 C122.45703125 44.9959375 122.45703125 45.6559375 122.45703125 46.3359375 C118.12864891 45.02430649 114.1609465 43.30304844 110.09106445 41.36621094 C93.60149266 33.57969724 76.44320724 28.10217328 58.58203125 24.4609375 C57.64593018 24.26983398 56.7098291 24.07873047 55.74536133 23.88183594 C38.11713095 20.54541518 20.66391744 20.0650182 2.76953125 20.2109375 C0.59180105 20.2210008 -1.58593372 20.23012065 -3.76367188 20.23828125 C-9.02353971 20.2599984 -14.28323178 20.29320338 -19.54296875 20.3359375 C-20.14029694 17.57329461 -20.54296875 15.17560981 -20.54296875 12.3359375 C-19.88296875 12.0059375 -19.22296875 11.6759375 -18.54296875 11.3359375 C-19.53296875 10.3459375 -20.52296875 9.3559375 -21.54296875 8.3359375 C-20.55296875 8.0059375 -19.56296875 7.6759375 -18.54296875 7.3359375 C-17.42511762 5.21808637 -17.42511762 5.21808637 -16.54296875 2.3359375 C-11.05684967 0.17833795 -5.84240579 0.01639798 0 0 Z " fill="#AE6DDE" transform="translate(239.54296875,0.6640625)"/>
<path d="M0 0 C0.99 0.495 0.99 0.495 2 1 C1.34 2.32 0.68 3.64 0 5 C-0.66 5 -1.32 5 -2 5 C-1.67 5.99 -1.34 6.98 -1 8 C-2 9.33333333 -3 10.66666667 -4 12 C-3.2236068 15.0745356 -3.2236068 15.0745356 -1 17 C-1.99 17.33 -2.98 17.66 -4 18 C-1.79038253 20.54106009 -0.26011642 21.30621489 3 22 C-11.05156792 29.03917005 -25.01050624 35.25962419 -40 40 C-40.71816895 40.23412598 -41.43633789 40.46825195 -42.17626953 40.70947266 C-53.89812894 44.517245 -65.82756477 47.09358407 -78 49 C-79.69564087 49.27142822 -79.69564087 49.27142822 -81.42553711 49.54833984 C-92.13070511 51.08594776 -102.70637682 51.30797759 -113.51147461 51.26074219 C-116.45772447 51.24992575 -119.40337674 51.26075189 -122.34960938 51.2734375 C-124.25260549 51.2721172 -126.15560124 51.26955751 -128.05859375 51.265625 C-129.35729652 51.27169769 -129.35729652 51.27169769 -130.68223572 51.27789307 C-136.35387084 51.23474048 -141.51772469 50.44962396 -147 49 C-146.01 46.69 -145.02 44.38 -144 42 C-144.99 41.67 -145.98 41.34 -147 41 C-146.67 40.46375 -146.34 39.9275 -146 39.375 C-144.77371976 36.46258442 -144.93134562 34.13235623 -145 31 C-143.86385254 31.01571045 -142.72770508 31.0314209 -141.55712891 31.04760742 C-93.24716305 31.65551815 -44.16764224 27.5179267 -1.9921875 1.1171875 C-1.33476562 0.74851562 -0.67734375 0.37984375 0 0 Z " fill="#AE6DDE" transform="translate(369,451)"/>
<path d="M0 0 C3.76083673 0.45596914 6.4218717 1.61299669 9.625 3.58984375 C10.48996094 4.12174316 11.35492188 4.65364258 12.24609375 5.20166016 C13.15488281 5.7744873 14.06367188 6.34731445 15 6.9375 C15.93972656 7.5257959 16.87945312 8.1140918 17.84765625 8.72021484 C25.26719224 13.42121039 32.22984573 18.40416946 39 24 C39.52996582 24.43521973 40.05993164 24.87043945 40.60595703 25.31884766 C61.23059111 42.30132413 61.23059111 42.30132413 69.1171875 51.75 C70.58842576 53.50816025 72.10270947 55.23032274 73.6328125 56.9375 C102 88.74785761 102 88.74785761 102 99 C97.25 97.125 97.25 97.125 95 96 C95.165 96.969375 95.33 97.93875 95.5 98.9375 C96.12960836 103.30041993 96.07316087 107.60221859 96 112 C95.8245884 115.71312894 95.8245884 115.71312894 96.5625 118.0625 C97 120 97 120 96 123 C96.66 123 97.32 123 98 123 C98.1953125 124.98567708 98.390625 126.97135417 98.5859375 128.95703125 C98.92665391 131.29988142 98.92665391 131.29988142 101 134 C100.34 134 99.68 134 99 134 C98.67 134.66 98.34 135.32 98 136 C97.30777344 134.36417969 97.30777344 134.36417969 96.6015625 132.6953125 C86.10008498 108.2629687 72.44802306 85.98840366 54.296875 66.484375 C52.3204205 64.34657727 50.43445344 62.166016 48.5625 59.9375 C33.38320806 42.61978587 12.94008533 29.21306097 -7 18 C-7 17.01 -7 16.02 -7 15 C-5.68 15.33 -4.36 15.66 -3 16 C-2.34 15.01 -1.68 14.02 -1 13 C-1.66 11.68 -2.32 10.36 -3 9 C-2.34 8.67 -1.68 8.34 -1 8 C-1.66 6.68 -2.32 5.36 -3 4 C-1 1 -1 1 0 0 Z M98 99 C98.66 99 99.32 99 100 99 C100 99.66 100 100.32 100 101 C99.34 101 98.68 101 98 101 C98 100.34 98 99.68 98 99 Z " fill="#906DF1" transform="translate(369,30)"/>
<path d="M0 0 C0.99 0 1.98 0 3 0 C3.89953957 3.69885302 4.01411265 6.7817974 3.625 10.5625 C3.53476562 11.49191406 3.44453125 12.42132813 3.3515625 13.37890625 C3 16 3 16 2.40234375 18.19921875 C1.84720446 20.68387128 2.71412026 21.88208043 4 24 C2.515 24.495 2.515 24.495 1 25 C0.505 27.475 0.505 27.475 0 30 C0.99 30 1.98 30 3 30 C5.21168225 27.05763218 5.21168225 27.05763218 7 24 C7.66 24.33 8.32 24.66 9 25 C7.5844024 30.05902091 5.37563601 33.85326959 2.4375 38.125 C1.99204834 38.78097168 1.54659668 39.43694336 1.08764648 40.11279297 C-10.50152544 57.05160392 -23.88646834 74.87625583 -39.75 88.1171875 C-41.50816025 89.58842576 -43.23032274 91.10270947 -44.9375 92.6328125 C-54.3478932 101.02556365 -64.46309185 108.09722637 -75 115 C-75.6604834 115.43957031 -76.3209668 115.87914062 -77.00146484 116.33203125 C-78.7415064 117.48686526 -80.49208015 118.62262411 -82.25 119.75 C-83.20390625 120.36359375 -84.1578125 120.9771875 -85.140625 121.609375 C-88.44458368 123.21621829 -91.36041848 123.65595996 -95 124 C-95.66 122.68 -96.32 121.36 -97 120 C-96.01 119.505 -96.01 119.505 -95 119 C-95.7734375 117.8553125 -95.7734375 117.8553125 -96.5625 116.6875 C-97.2740625 115.3571875 -97.2740625 115.3571875 -98 114 C-97 111 -97 111 -95 109 C-94.731875 108.236875 -94.46375 107.47375 -94.1875 106.6875 C-91.84506876 101.38620824 -87.27662058 98.33725561 -82.5 95.3125 C-72.45968125 88.74625473 -63.2686943 81.47187735 -54.484375 73.296875 C-52.34657727 71.3204205 -50.166016 69.43445344 -47.9375 67.5625 C-27.15426275 49.34561391 -12.33735095 24.38031826 0 0 Z " fill="#8F6CF1" transform="translate(462,349)"/>
<path d="M0 0 C4.98661475 0.53805477 8.41362159 2.90127851 12.5625 5.5 C39.64509426 21.82757226 70.65092713 31.42999882 102 35 C100.515 35.495 100.515 35.495 99 36 C99.20625 37.27875 99.4125 38.5575 99.625 39.875 C99.9765625 42.0546875 99.9765625 42.0546875 100 44 C99.01 44.99 99.01 44.99 98 46 C98.66 46.33 99.32 46.66 100 47 C100 48.32 100 49.64 100 51 C99.34 51 98.68 51 98 51 C98 51.66 98 52.32 98 53 C99.32 53.66 100.64 54.32 102 55 C70.50912052 54.31133266 31.08622152 42.90439237 5 25 C4.30251417 23.68252676 3.63040043 22.35085807 3 21 C2.01 20.67 1.02 20.34 0 20 C0.020625 19.0925 0.04125 18.185 0.0625 17.25 C0.0104327 14.54250017 -0.2917909 12.56725799 -1 10 C-1 7 -1 7 1 4 C0.69159401 1.84725052 0.69159401 1.84725052 0 0 Z " fill="#D16EC9" transform="translate(125,446)"/>
<path d="M0 0 C-1.32 0.33 -2.64 0.66 -4 1 C-3.505 2.485 -3.505 2.485 -3 4 C-4 5 -5 6 -6 7 C-6 7.78375 -6 8.5675 -6 9.375 C-6 12 -6 12 -7 15 C-7 15.99 -7 16.98 -7 18 C-4.69 18.33 -2.38 18.66 0 19 C0 19.33 0 19.66 0 20 C-0.62753174 20.09498779 -1.25506348 20.18997559 -1.90161133 20.2878418 C-33.56949917 25.14806504 -64.71428838 33.5883492 -92.04296875 50.9140625 C-94.62939196 52.34924344 -97.0607353 52.84530186 -100 53 C-100.84454356 49.62182575 -101.10844919 47.32534757 -100 44 C-100.495 44.495 -100.495 44.495 -101 45 C-101.66 44.34 -102.32 43.68 -103 43 C-102.484375 42.236875 -101.96875 41.47375 -101.4375 40.6875 C-100.963125 39.800625 -100.48875 38.91375 -100 38 C-100.495 36.515 -100.495 36.515 -101 35 C-100.15257266 31.70370781 -98.83072153 30.88801913 -95.96484375 28.9921875 C-94.63116667 28.27002026 -93.28780154 27.56558368 -91.9375 26.875 C-91.19580566 26.49102051 -90.45411133 26.10704102 -89.68994141 25.71142578 C-63.25774221 12.39603772 -30.02250697 -0.6045174 0 0 Z " fill="#CD6ECB" transform="translate(227,2)"/>
<path d="M0 0 C0.96757233 0.00045822 1.93514465 0.00091644 2.93203735 0.00138855 C4.97098014 0.00439814 7.0099209 0.0122455 9.04882812 0.0246582 C12.14721963 0.04286975 15.24531061 0.04516786 18.34375 0.04492188 C20.33333588 0.0498399 22.32291976 0.05566945 24.3125 0.0625 C25.22840912 0.06361282 26.14431824 0.06472565 27.08798218 0.06587219 C32.72675926 0.10686136 38.19434981 0.51825294 43.7890625 1.23046875 C42.4690625 1.56046875 41.1490625 1.89046875 39.7890625 2.23046875 C40.2840625 3.71546875 40.2840625 3.71546875 40.7890625 5.23046875 C40.70162242 7.81136135 40.56037755 10.34738353 40.3515625 12.91796875 C40.29935547 13.61986328 40.24714844 14.32175781 40.19335938 15.04492188 C40.06398385 16.77384929 39.92723719 18.5022223 39.7890625 20.23046875 C41.7690625 20.23046875 43.7490625 20.23046875 45.7890625 20.23046875 C45.7890625 20.56046875 45.7890625 20.89046875 45.7890625 21.23046875 C44.70391357 21.15900635 43.61876465 21.08754395 42.50073242 21.01391602 C29.02712239 20.18517561 15.59675204 20.11294567 2.1015625 20.16796875 C-0.07617083 20.17300041 -2.2539053 20.17756033 -4.43164062 20.18164062 C-9.6914318 20.19249904 -14.95117904 20.2091016 -20.2109375 20.23046875 C-20.80826569 17.46782586 -21.2109375 15.07014106 -21.2109375 12.23046875 C-20.5509375 11.90046875 -19.8909375 11.57046875 -19.2109375 11.23046875 C-20.2009375 10.24046875 -21.1909375 9.25046875 -22.2109375 8.23046875 C-21.2209375 7.90046875 -20.2309375 7.57046875 -19.2109375 7.23046875 C-18.09308637 5.11261762 -18.09308637 5.11261762 -17.2109375 2.23046875 C-11.52094859 -0.05208232 -6.06659893 -0.04738441 0 0 Z " fill="#BB6CD5" transform="translate(240.2109375,0.76953125)"/>
<path d="M0 0 C0 0.33 0 0.66 0 1 C-2.31 1 -4.62 1 -7 1 C-7 6.94 -7 12.88 -7 19 C-5.35 19 -3.7 19 -2 19 C-2 19.33 -2 19.66 -2 20 C-8.43150119 20.81491152 -14.70801178 21.1598466 -21.1875 21.16796875 C-22.60131958 21.17296135 -22.60131958 21.17296135 -24.04370117 21.17805481 C-26.02359534 21.18308569 -28.00349788 21.18546433 -29.98339844 21.18530273 C-32.99167943 21.18749394 -35.99959593 21.20570367 -39.0078125 21.22460938 C-40.94270709 21.22754328 -42.87760341 21.22952809 -44.8125 21.23046875 C-45.70026123 21.23765427 -46.58802246 21.24483978 -47.50268555 21.25224304 C-53.28537177 21.23134135 -58.39330266 20.43037394 -64 19 C-62.515 15.535 -62.515 15.535 -61 12 C-61.99 11.67 -62.98 11.34 -64 11 C-63.67 10.46375 -63.34 9.9275 -63 9.375 C-61.77371976 6.46258442 -61.93134562 4.13235623 -62 1 C-60.79053711 1.00523682 -59.58107422 1.01047363 -58.33496094 1.01586914 C-53.79492957 1.03413757 -49.25490137 1.04551087 -44.71484375 1.05493164 C-42.75976004 1.05992238 -40.80468 1.06671734 -38.84960938 1.07543945 C-24.56695629 1.17378133 -24.56695629 1.17378133 -10.32421875 0.22265625 C-6.8712994 -0.10812762 -3.46580762 -0.06665015 0 0 Z " fill="#BB6CD5" transform="translate(286,481)"/>
<path d="M0 0 C0.66 0.33 1.32 0.66 2 1 C1.34 2.32 0.68 3.64 0 5 C-0.66 5 -1.32 5 -2 5 C-1.505 6.485 -1.505 6.485 -1 8 C-2 9.33333333 -3 10.66666667 -4 12 C-3.2236068 15.0745356 -3.2236068 15.0745356 -1 17 C-1.99 17.33 -2.98 17.66 -4 18 C-1.79038253 20.54106009 -0.26011642 21.30621489 3 22 C-31.11939179 38.80395478 -31.11939179 38.80395478 -40 38 C-42.80740885 35.75407292 -44.61164156 34.10532787 -45.8125 30.6875 C-45.9053125 29.8521875 -45.9053125 29.8521875 -46 29 C-45.01 28.34 -44.02 27.68 -43 27 C-43.0825 26.236875 -43.165 25.47375 -43.25 24.6875 C-43.1675 23.800625 -43.085 22.91375 -43 22 C-37.7791499 17.66810546 -32.25352513 15.20487893 -26 12.6875 C-18.56293934 9.61707597 -11.41988186 6.31361248 -4.44335938 2.29956055 C-2.9914672 1.47902527 -1.49884736 0.73124935 0 0 Z " fill="#A36CE5" transform="translate(369,451)"/>
<path d="M0 0 C0.66 0 1.32 0 2 0 C2 0.66 2 1.32 2 2 C3.98 2 5.96 2 8 2 C8 3.32 8 4.64 8 6 C8.680625 5.649375 9.36125 5.29875 10.0625 4.9375 C16.84668567 2.77233436 22.97027513 6.03975273 29.0625 8.875 C29.83916016 9.22691406 30.61582031 9.57882813 31.41601562 9.94140625 C35.6564734 11.87313045 39.84639595 13.88664626 44 16 C43.34 17.65 42.68 19.3 42 21 C41.34 21 40.68 21 40 21 C40.99 22.32 41.98 23.64 43 25 C42.01 25.33 41.02 25.66 40 26 C40.99 27.65 41.98 29.3 43 31 C41.02 32.485 41.02 32.485 39 34 C38.01 33.34 37.02 32.68 36 32 C36 32.66 36 33.32 36 34 C30.435034 32.30392305 25.22666618 29.95752112 19.9375 27.5625 C19.05255859 27.16740234 18.16761719 26.77230469 17.25585938 26.36523438 C6.52880593 21.52880593 6.52880593 21.52880593 3 18 C2.46375 17.525625 1.9275 17.05125 1.375 16.5625 C-1.62749368 13.15057536 0 4.59407056 0 0 Z " fill="#A36CE4" transform="translate(326,13)"/>
<path d="M0 0 C0.66 0.33 1.32 0.66 2 1 C1.34 3.31 0.68 5.62 0 8 C0.66 8.33 1.32 8.66 2 9 C1.34 9.66 0.68 10.32 0 11 C0.32041397 13.60280568 0.32041397 13.60280568 1 16 C3.31 16.66 5.62 17.32 8 18 C6.0297567 19.9702433 4.87061004 20.6136961 2.359375 21.6640625 C1.62493164 21.97786865 0.89048828 22.2916748 0.13378906 22.61499023 C-0.65286133 22.94829346 -1.43951172 23.28159668 -2.25 23.625 C-9.5088904 26.75370677 -16.26128783 30.28444213 -22.984375 34.43359375 C-26.07166779 36.0372264 -28.56026187 36.63439909 -32 37 C-32.84454356 33.62182575 -33.10844919 31.32534757 -32 28 C-32.33 28.33 -32.66 28.66 -33 29 C-33.66 28.34 -34.32 27.68 -35 27 C-34.484375 26.236875 -33.96875 25.47375 -33.4375 24.6875 C-32.7259375 23.3571875 -32.7259375 23.3571875 -32 22 C-32.33 21.01 -32.66 20.02 -33 19 C-32.42365468 16.56543787 -31.51421626 15.35642309 -29.46289062 13.93457031 C-27.42211928 12.76191983 -25.35250115 11.68301509 -23.25 10.625 C-22.49517334 10.23650879 -21.74034668 9.84801758 -20.96264648 9.44775391 C-7.07500388 2.38950205 -7.07500388 2.38950205 0 0 Z " fill="#D96FC5" transform="translate(159,18)"/>
<path d="M0 0 C5.0644489 0.53206272 8.64961594 3.00062725 12.875 5.625 C20.67719741 10.35696324 28.65293165 14.33069193 37 18 C36.37738281 18.29003906 35.75476563 18.58007812 35.11328125 18.87890625 C32.57232303 20.22688224 31.42992511 21.51644587 30 24 C30.33 24.99 30.66 25.98 31 27 C31 27.33 31 27.66 31 28 C31.66 28.66 32.32 29.32 33 30 C33 30.33 33 30.66 33 31 C33.66 31.66 34.32 32.32 35 33 C35.39764263 34.98821313 35.73775349 36.98944339 36 39 C29.4305178 36.99117459 23.30521497 34.42525377 17.125 31.4375 C15.86429688 30.83905273 15.86429688 30.83905273 14.578125 30.22851562 C5.40781782 25.84112425 5.40781782 25.84112425 4 22.9375 C3.10301684 20.64657009 3.10301684 20.64657009 0 20 C0.020625 19.0925 0.04125 18.185 0.0625 17.25 C0.0104327 14.54250017 -0.2917909 12.56725799 -1 10 C-1 7 -1 7 1 4 C0.69159401 1.84725052 0.69159401 1.84725052 0 0 Z M31 24 C31.66 24.66 32.32 25.32 33 26 C32.34 26 31.68 26 31 26 C31 25.34 31 24.68 31 24 Z M34 27 C34.66 27.33 35.32 27.66 36 28 C35.01 28 34.02 28 33 28 C33.33 27.67 33.66 27.34 34 27 Z " fill="#D96FC4" transform="translate(125,446)"/>
<path d="M0 0 C9.1178243 -0.39642714 18.1744566 1.60918662 27.12109375 3.15234375 C26.13109375 3.48234375 25.14109375 3.81234375 24.12109375 4.15234375 C24.32734375 5.43109375 24.53359375 6.70984375 24.74609375 8.02734375 C25.09765625 10.20703125 25.09765625 10.20703125 25.12109375 12.15234375 C24.46109375 12.81234375 23.80109375 13.47234375 23.12109375 14.15234375 C23.78109375 14.48234375 24.44109375 14.81234375 25.12109375 15.15234375 C25.12109375 16.47234375 25.12109375 17.79234375 25.12109375 19.15234375 C24.46109375 19.15234375 23.80109375 19.15234375 23.12109375 19.15234375 C23.12109375 19.81234375 23.12109375 20.47234375 23.12109375 21.15234375 C24.44109375 21.81234375 25.76109375 22.47234375 27.12109375 23.15234375 C19.11176355 22.86003243 11.31120597 21.83180626 3.43359375 20.40234375 C2.54833008 20.25764648 1.66306641 20.11294922 0.75097656 19.96386719 C-1.58122573 19.51588887 -3.69008674 19.07481236 -5.87890625 18.15234375 C-7.4609375 15.51171875 -7.4609375 15.51171875 -7.87890625 13.15234375 C-8.20890625 13.81234375 -8.53890625 14.47234375 -8.87890625 15.15234375 C-8.87890625 13.48567708 -8.87890625 11.81901042 -8.87890625 10.15234375 C-9.10578125 9.55421875 -9.33265625 8.95609375 -9.56640625 8.33984375 C-9.87890625 6.15234375 -9.87890625 6.15234375 -8.75390625 3.46484375 C-6.87890625 1.15234375 -6.87890625 1.15234375 -4.81640625 0.33984375 C-3.2102146 0.23732088 -1.60419586 0.13006993 0 0 Z M-5.87890625 11.15234375 C-4.87890625 13.15234375 -4.87890625 13.15234375 -4.87890625 13.15234375 Z " fill="#C76DCF" transform="translate(199.87890625,477.84765625)"/>
<path d="M0 0 C0.66 0 1.32 0 2 0 C2.33 0.66 2.66 1.32 3 2 C5.11327425 2.90725434 5.11327425 2.90725434 7.5625 3.625 C8.38878906 3.88539062 9.21507812 4.14578125 10.06640625 4.4140625 C11.02353516 4.70410156 11.02353516 4.70410156 12 5 C11.67 6.32 11.34 7.64 11 9 C10.34 9 9.68 9 9 9 C9.99 10.32 10.98 11.64 12 13 C11.01 13.33 10.02 13.66 9 14 C9.99 15.65 10.98 17.3 12 19 C10.68 19.99 9.36 20.98 8 22 C5.77810176 19.77810176 5.07401108 17.91517292 4 15 C3.34 15.66 2.68 16.32 2 17 C1.15818587 13.84319701 1 11.27427197 1 8 C0.36485174 5.65789079 -0.2986716 3.32315031 -1 1 C-0.67 0.67 -0.34 0.34 0 0 Z " fill="#9A67E7" transform="translate(357,25)"/>
<path d="M0 0 C1.37562854 1.28965176 2.70766393 2.62689293 4 4 C4 4.66 4 5.32 4 6 C5.32 6.66 6.64 7.32 8 8 C7.01 8.33 6.02 8.66 5 9 C5.33 9.99 5.66 10.98 6 12 C2.17207132 10.4404735 -0.36359864 8.16368164 -3 5 C-2.9375 2.75 -2.9375 2.75 -2 1 C-1.34 0.67 -0.68 0.34 0 0 Z M3 12 C3.66 12.99 4.32 13.98 5 15 C4.01 14.67 3.02 14.34 2 14 C2.33 13.34 2.66 12.68 3 12 Z " fill="#9A67E7" transform="translate(360,460)"/>
<path d="M0 0 C1.2077558 3.62326739 0.54311128 4.64146369 -1 8 C0.32 8.66 1.64 9.32 3 10 C3 11.98 3 13.96 3 16 C-0.34373475 15.44271087 -3.03312999 14.64826111 -6 13 C-4.58707905 8.1725201 -2.57025846 4.2837641 0 0 Z " fill="#F775B5" transform="translate(34,127)"/>
<path d="M0 0 C0.696553 1.95513161 1.38199565 3.91422476 2.0625 5.875 C2.44535156 6.96554687 2.82820313 8.05609375 3.22265625 9.1796875 C4 12 4 12 3 14 C2.01 14.495 2.01 14.495 1 15 C0.87625 14.360625 0.7525 13.72125 0.625 13.0625 C0.41875 12.381875 0.2125 11.70125 0 11 C-0.66 10.67 -1.32 10.34 -2 10 C-2.33 10.66 -2.66 11.32 -3 12 C-2.95875 11.278125 -2.9175 10.55625 -2.875 9.8125 C-3.00921305 6.79270631 -3.75170619 4.73064271 -5 2 C-2 0 -2 0 0 0 Z M-6 6 C-5.34 6 -4.68 6 -4 6 C-4.33 6.66 -4.66 7.32 -5 8 C-5.33 7.34 -5.66 6.68 -6 6 Z " fill="#F577B7" transform="translate(32,320)"/>
<path d="M0 0 C1.32 0.99 2.64 1.98 4 3 C3.01 3.33 2.02 3.66 1 4 C1.99 5.485 1.99 5.485 3 7 C3 7.99 3 8.98 3 10 C3.99 10 4.98 10 6 10 C5.34 11.65 4.68 13.3 4 15 C0.84297684 11.09130466 -2 7.1385061 -2 2 C-1.34 2 -0.68 2 0 2 C0 1.34 0 0.68 0 0 Z " fill="#F788C0" transform="translate(28,356)"/>
<path d="M0 0 C-0.25 1.875 -0.25 1.875 -1 4 C-3.0625 5.25 -3.0625 5.25 -5 6 C-5.33 5.01 -5.66 4.02 -6 3 C-6.33 4.98 -6.66 6.96 -7 9 C-7.33 9 -7.66 9 -8 9 C-8 7.02 -8 5.04 -8 3 C-8.99 2.67 -9.98 2.34 -11 2 C-9.73392393 1.46770674 -8.46189588 0.94955456 -7.1875 0.4375 C-6.47980469 0.14746094 -5.77210938 -0.14257812 -5.04296875 -0.44140625 C-3 -1 -3 -1 0 0 Z " fill="#D977C9" transform="translate(173,15)"/>
<path d="M0 0 C2.18975773 3.28463659 2.99806563 6.20696275 4 10 C3.34 10 2.68 10 2 10 C1.67 10.99 1.34 11.98 1 13 C0.34 13 -0.32 13 -1 13 C-1.02686553 11.02090602 -1.04633375 9.04171029 -1.0625 7.0625 C-1.07410156 5.96035156 -1.08570313 4.85820312 -1.09765625 3.72265625 C-1 1 -1 1 0 0 Z " fill="#F27BBB" transform="translate(36,334)"/>
<path d="M0 0 C1.72251754 4.0845326 0.07280563 7.36973696 -1.4375 11.25 C-1.68048828 11.8996875 -1.92347656 12.549375 -2.17382812 13.21875 C-2.77285994 14.81616817 -3.38514321 16.40860594 -4 18 C-5.109375 16.3125 -5.109375 16.3125 -6 14 C-5.390625 11.5625 -5.390625 11.5625 -4.25 9 C-3.70085938 7.7315625 -3.70085938 7.7315625 -3.140625 6.4375 C-2.12760472 4.27268953 -1.08458428 2.12972914 0 0 Z " fill="#F286C1" transform="translate(37,162)"/>
<path d="M0 0 C0.66 0 1.32 0 2 0 C2.1953125 1.98567708 2.390625 3.97135417 2.5859375 5.95703125 C2.92665391 8.29988142 2.92665391 8.29988142 5 11 C4.34 11 3.68 11 3 11 C2.67 11.66 2.34 12.32 2 13 C-0.44038726 8.11922548 -1.46845421 5.47332932 0 0 Z " fill="#9179F7" transform="translate(465,153)"/>
<path d="M0 0 C3.3 0.99 6.6 1.98 10 3 C8.35 4.32 6.7 5.64 5 7 C3.68 6.34 2.36 5.68 1 5 C1.66 4.67 2.32 4.34 3 4 C3 3.34 3 2.68 3 2 C1.68 2.33 0.36 2.66 -1 3 C-0.67 2.01 -0.34 1.02 0 0 Z " fill="#AE7AE5" transform="translate(331,13)"/>
<path d="M0 0 C1.875 0.625 1.875 0.625 4 2 C5.25 5.125 5.25 5.125 6 8 C1.3697479 6.53781513 1.3697479 6.53781513 -0.375 4 C-1 2 -1 2 0 0 Z M2 8 C2.66 8 3.32 8 4 8 C4 8.66 4 9.32 4 10 C3.34 10 2.68 10 2 10 C2 9.34 2 8.68 2 8 Z " fill="#8E76F8" transform="translate(465,121)"/>
<path d="M0 0 C0.66 0.33 1.32 0.66 2 1 C0.79157144 5.43090471 -0.51668565 7.98112756 -4 11 C-4.33 9.68 -4.66 8.36 -5 7 C-4.34 7 -3.68 7 -3 7 C-2.87625 6.21625 -2.7525 5.4325 -2.625 4.625 C-2 2 -2 2 0 0 Z " fill="#967DF6" transform="translate(469,373)"/>
<path d="M0 0 C0.66 0.33 1.32 0.66 2 1 C-2.29 5.29 -6.58 9.58 -11 14 C-11 9.82308582 -8.77013484 7.86318847 -6 5 C-4.05228995 3.24842937 -2.05675499 1.62627139 0 0 Z " fill="#F19CCF" transform="translate(179,319)"/>
<path d="M0 0 C-1.32 0.33 -2.64 0.66 -4 1 C-3.67 1.99 -3.34 2.98 -3 4 C-3.66 4.66 -4.32 5.32 -5 6 C-5 5.34 -5 4.68 -5 4 C-5.99 4.33 -6.98 4.66 -8 5 C-8.33 4.01 -8.66 3.02 -9 2 C-11.01508358 1.26676204 -11.01508358 1.26676204 -13 1 C-8.61414671 0.29826347 -4.44209357 -0.10834375 0 0 Z " fill="#CE7FD5" transform="translate(227,2)"/>
<path d="M0 0 C4.30764815 1.56641751 8.06171464 3.68336156 12 6 C11.01 6.66 10.02 7.32 9 8 C8.34 7.67 7.68 7.34 7 7 C7.33 6.34 7.66 5.68 8 5 C7.4225 5.2475 6.845 5.495 6.25 5.75 C5.5075 5.8325 4.765 5.915 4 6 C1.75 4.1875 1.75 4.1875 0 2 C0 1.34 0 0.68 0 0 Z " fill="#E588CB" transform="translate(126,446)"/>
<path d="M0 0 C0.66 0.33 1.32 0.66 2 1 C1.34 2.32 0.68 3.64 0 5 C-0.66 5 -1.32 5 -2 5 C-2.33 5.66 -2.66 6.32 -3 7 C-3.99 6.67 -4.98 6.34 -6 6 C-6.33 5.34 -6.66 4.68 -7 4 C-1.7265625 0.77734375 -1.7265625 0.77734375 0 0 Z " fill="#AB7BE8" transform="translate(369,451)"/>
<path d="M0 0 C1.32 0.66 2.64 1.32 4 2 C3.34 3.65 2.68 5.3 2 7 C1.34 6.67 0.68 6.34 0 6 C-0.99 6.99 -1.98 7.98 -3 9 C-2.01 6.03 -1.02 3.06 0 0 Z " fill="#947AF6" transform="translate(466,340)"/>
<path d="M0 0 C1.2077558 3.62326739 0.54311128 4.64146369 -1 8 C0.32 8.66 1.64 9.32 3 10 C3 10.66 3 11.32 3 12 C2.401875 11.690625 1.80375 11.38125 1.1875 11.0625 C-1.08956772 9.89790296 -1.08956772 9.89790296 -4 9 C-2.80100302 5.9168649 -1.52299523 2.93720508 0 0 Z " fill="#F485C0" transform="translate(34,127)"/>
<path d="M0 0 C4.12751449 0.60698743 7.3321148 2.03810791 11 4 C11 4.33 11 4.66 11 5 C6.94393835 4.53199289 3.53411321 4.12046792 0 2 C0 1.34 0 0.68 0 0 Z " fill="#B283E8" transform="translate(359,25)"/>
<path d="M0 0 C-0.33 2.64 -0.66 5.28 -1 8 C-2.5 6.75 -2.5 6.75 -4 5 C-4 3.68 -4 2.36 -4 1 C-2 0 -2 0 0 0 Z " fill="#F378B9" transform="translate(40,156)"/>
<path d="M0 0 C0.66 0.33 1.32 0.66 2 1 C2.73075648 3.3140622 3.40138258 5.64828869 4 8 C3.34 8.66 2.68 9.32 2 10 C0.68 7.03 -0.64 4.06 -2 1 C-1.34 0.67 -0.68 0.34 0 0 Z " fill="#E074C3" transform="translate(130,32)"/>
<path d="M0 0 C0.33 0.99 0.66 1.98 1 3 C2.90178785 3.60061233 2.90178785 3.60061233 5 4 C5.99 4.66 6.98 5.32 8 6 C5.36 6.33 2.72 6.66 0 7 C0.66 6.34 1.32 5.68 2 5 C1.01 5 0.02 5 -1 5 C-0.67 3.35 -0.34 1.7 0 0 Z " fill="#BB7EDF" transform="translate(299,491)"/>
<path d="M0 0 C2.97 0.33 5.94 0.66 9 1 C9 1.33 9 1.66 9 2 C7.824375 2.185625 7.824375 2.185625 6.625 2.375 C3.85942178 2.79117993 3.85942178 2.79117993 2 5 C2 4.34 2 3.68 2 3 C1.34 3 0.68 3 0 3 C0 2.01 0 1.02 0 0 Z " fill="#D784D1" transform="translate(194,476)"/>
<path d="M0 0 C1.32 0.99 2.64 1.98 4 3 C3.01 3.33 2.02 3.66 1 4 C0.67 4.99 0.34 5.98 0 7 C-0.66 6.34 -1.32 5.68 -2 5 C-2 4.01 -2 3.02 -2 2 C-1.34 2 -0.68 2 0 2 C0 1.34 0 0.68 0 0 Z " fill="#F77CB9" transform="translate(28,356)"/>
<path d="M0 0 C2.64 0 5.28 0 8 0 C5.61426621 1.89213369 3.92824652 3.02391783 1 4 C0.67 2.68 0.34 1.36 0 0 Z " fill="#B78BE9" transform="translate(364,472)"/>
<path d="M0 0 C0.99 0.33 1.98 0.66 3 1 C2.34 2.32 1.68 3.64 1 5 C-0.32 4.01 -1.64 3.02 -3 2 C-2.01 1.34 -1.02 0.68 0 0 Z " fill="#E282CA" transform="translate(135,29)"/>
</svg>
