<svg xmlns="http://www.w3.org/2000/svg" xmlns:xlink="http://www.w3.org/1999/xlink" viewBox="0 0 61.267323138836055 95.481" height="95.481" width="61.267323138836055" data-background-color="#000000" preserveAspectRatio="xMidYMid meet" id="tight-bounds"><g><svg viewBox="0 0 61.267323138836055 95.481" height="95.481" width="61.267323138836055"><g><svg viewBox="0 0 61.267323138836055 95.481" height="95.481" width="61.267323138836055"><g id="textblocktransform"><svg viewBox="0 0 61.267323138836055 95.481" height="95.481" width="61.267323138836055" id="textblock"><g><svg viewBox="0 0 61.267323138836055 95.481" height="95.481" width="61.267323138836055"><g><svg viewBox="0 0 61.267323138836055 95.481" height="95.481" width="61.267323138836055"><g><svg xmlns="http://www.w3.org/2000/svg" xmlns:xlink="http://www.w3.org/1999/xlink" version="1.1" x="0" y="0" viewBox="17.678955078125 1.7829999923706055 61.75123596191406 96.23514556884766" enable-background="new 0 0 100 100" xml:space="preserve" height="95.481" width="61.267323138836055" class="icon-icon-0" data-fill-palette-color="accent" id="icon-0"/></g></svg></g></svg></g></svg></g></svg></g></svg><mask id="6bade4a2-b6b7-46b1-973d-dcc477f43827"><svg xmlns:xlink="http://www.w3.org/1999/xlink" viewBox="0 0 61.267323138836055 95.481" height="95.481" width="61.267323138836055" data-background-color="#000000" preserveAspectRatio="xMidYMid meet" id="SvgjsSvg1239"><g><svg viewBox="0 0 61.267323138836055 95.481" height="95.481" width="61.267323138836055"><g><svg viewBox="0 0 61.267323138836055 95.481" height="95.481" width="61.267323138836055"><g id="SvgjsG1238"><svg viewBox="0 0 61.267323138836055 95.481" height="95.481" width="61.267323138836055" id="SvgjsSvg1237"><g><svg viewBox="0 0 61.267323138836055 95.481" height="95.481" width="61.267323138836055"><g><svg viewBox="0 0 61.267323138836055 95.481" height="95.481" width="61.267323138836055"><g><svg xmlns="http://www.w3.org/2000/svg" xmlns:xlink="http://www.w3.org/1999/xlink" version="1.1" x="0" y="0" viewBox="17.678955078125 1.7829999923706055 61.75123596191406 96.23514556884766" enable-background="new 0 0 100 100" xml:space="preserve" height="95.481" width="61.267323138836055" class="icon-icon-0" data-fill-palette-color="accent" id="SvgjsSvg1236"><path d="M67.988 14.273C61.139 10.895 57.3 5.113 55.97 2.793V1.783H47.277V70.145C43.704 68.544 39.334 67.898 34.761 68.542 24.25 70.027 16.653 77.773 17.792 85.844 18.932 93.915 28.376 99.256 38.888 97.77 48.817 96.369 56.143 89.379 55.963 81.807H55.97V20.133C57.642 21.377 62.98 21.349 68.528 26.897 75.323 33.693 72.848 46.261 72.848 46.261 83.786 37.945 80.355 20.374 67.988 14.273" fill="white"/></svg></g></svg></g></svg></g></svg></g></svg></g></svg></g><defs><mask/></defs></svg></mask><linearGradient x1="0" x2="1" y1="0.548" y2="0.55" id="f175b371-75e8-4456-ad10-8a417094f5c3"><stop stop-color="#ff6cab" offset="0"/><stop stop-color="#7366ff" offset="1"/></linearGradient><rect width="61.267323138836055" height="95.481" fill="url(#f175b371-75e8-4456-ad10-8a417094f5c3)" mask="url(#6bade4a2-b6b7-46b1-973d-dcc477f43827)" data-fill-palette-color="accent"/></g><defs><mask/></defs></svg>